<svg width="41" height="46" viewBox="0 0 41 46" fill="none" xmlns="http://www.w3.org/2000/svg">
<path d="M40 11.6L35 8.89999C35 8.89999 34.9 8.79999 34.8 8.79999C34.8 8.79999 34.8 8.79999 34.7 8.79999L28.5 9.89999L26.9 4.60001C26.9 4.50001 26.8 4.49999 26.8 4.39999L20.2 0.899994H20.1H20L13.7 4.20001L13.3 4.39999L4.60001 9.10001L0.100006 11.5C6.10203e-06 11.5 0 11.6 0 11.7V34.4C0 34.5 0.100006 34.6 0.100006 34.6L6.5 38.2H6.60001C6.60001 38.2 6.60001 38.2 6.70001 38.2L12.2 37.1V41.4C12.2 41.5 12.3 41.6 12.3 41.6L19.9 46H20H20.1L26.8 42.2C26.9 42.1 26.9 42.1 26.9 42V37L34.6 37.8H34.7L39.9 34.8C40 34.7 40 34.7 40 34.6V11.9C40.1 11.8 40 11.7 40 11.6ZM34.4 27.8V36.2L27 35.5V27.9L31 33.3C31.1 33.4 31.1 33.4 31.2 33.4C31.3 33.4 31.4 33.3 31.4 33.3L34.4 27.8ZM28.9 11.5L33.8 10.6L30.8 17.6L28.9 11.5ZM13.4 27.8H12.4L6.5 27.7H5.5C5.4 27.7 5.39999 27.7 5.29999 27.8C5.19999 27.9 5.20001 27.9 5.20001 28V29V36L1.29999 33.8V12.6L5.10001 10.5L13.8 5.79999L14 5.70001L14.1 5.60001L18.5 3.20001V43.7L13.4 40.8V29V28C13.7 27.9 13.5 27.8 13.4 27.8Z" fill="#575756"/>
<path d="M13.7 21.4V13.9V12.4C13.7 12.3 13.7 12.2 13.6 12.2C13.6 12.2 13.5 12.2 13.4 12.2H13.3L12 12.8L6.20001 15.3L5.60001 15.6C5.50001 15.6 5.39999 15.7 5.39999 15.9V16.5V21.6V22.6C5.39999 22.7 5.4 22.7 5.5 22.8C5.6 22.9 5.60001 22.9 5.70001 22.9H6.70001H12.5H13.5C13.7 22.9 13.8 22.8 13.8 22.6V21.4H13.7Z" fill="#575756"/>
</svg>
