<svg width="141" height="68" viewBox="0 0 141 68" fill="none" xmlns="http://www.w3.org/2000/svg">
<path d="M87.1 11L82.1 8.29999C82.1 8.29999 82 8.20001 81.9 8.20001C81.9 8.20001 81.9 8.20001 81.8 8.20001L75.6 9.29999L74 4C74 3.9 73.9 3.89999 73.9 3.79999L67.3 0.299988H67.2H67.1L60.8 3.60001L60.4 3.79999L51.7 8.5L47.2 10.9C47.1 10.9 47.1 11 47.1 11.1V33.8C47.1 33.9 47.2 34 47.2 34L53.6 37.6H53.7C53.7 37.6 53.7 37.6 53.8 37.6L59.3 36.5V40.8C59.3 40.9 59.4 41 59.4 41L67 45.4H67.1H67.2L73.9 41.6C74 41.5 74 41.5 74 41.4V36.3L81.7 37.1H81.8L87 34.1C87.1 34 87.1 34 87.1 33.9V11.2C87.2 11.1 87.2 11 87.1 11ZM81.5 27.2V35.6L74.1 34.9V27.3L78.1 32.7C78.2 32.8 78.2 32.8 78.3 32.8C78.4 32.8 78.5 32.7 78.5 32.7L81.5 27.2ZM76.1 10.8L81 9.89999L78 16.9L76.1 10.8ZM60.5 27.2H59.5L53.6 27.1H52.6C52.5 27.1 52.5 27.1 52.4 27.2C52.3 27.3 52.3 27.3 52.3 27.4V28.4V35.4L48.4 33.2V12L52.2 9.89999L60.9 5.20001L61.1 5.10001L61.2 5L65.6 2.60001V43.1L60.5 40.2V28.4V27.4C60.8 27.3 60.7 27.2 60.5 27.2Z" fill="#575756"/>
<path d="M60.8 20.7V13.2V11.7C60.8 11.6 60.8 11.5 60.7 11.5C60.7 11.5 60.6 11.5 60.5 11.5H60.4L59.1 12.1L53.3 14.6L52.7 14.9C52.6 14.9 52.5 15 52.5 15.2V15.8V20.9V21.9C52.5 22 52.5 22 52.6 22.1C52.7 22.2 52.7 22.2 52.8 22.2H53.8H59.6H60.6C60.8 22.2 60.9 22.1 60.9 21.9V20.7H60.8Z" fill="#575756"/>
<path d="M15.5 66.9V54.2H18.3L23.2 60.4L28.2 54.2H30.9V66.9H28V58.3L24.3 63.2H22L18.3 58.3V66.9H15.5Z" fill="#575756"/>
<path d="M0.899994 66.9V54.2H13.4V66.9H10.6V63.1H3.59999V66.9H0.899994ZM10.7 60.6V56.8H3.69999V59.4V60.7H10.7V60.6Z" fill="#575756"/>
<path d="M34.1 66.9L32.7 65.6V63.1H35.5V64.4H42.5V61.9H34.1L32.7 61V55.5L34.1 54.2H43.9L45.3 55.5V58H42.5V56.7H35.5V59.2H43.8L45.2 60.5V65.6L43.8 66.9H34.1V66.9Z" fill="#E4C603"/>
<path d="M47.2 66.9V54.2H59V56.7H50V59.3H58.3V61.8H50V64.3H59V66.8H47.2V66.9Z" fill="#E4C603"/>
<path d="M70.5 66.9L69 63.2H63.6V67H60.8V54.3H72L73.4 55.6V62L72 63.3L73.4 67.1L70.5 66.9ZM70.6 60.6V56.8H63.6V60.6H70.6Z" fill="#E4C603"/>
<path d="M84.9 61.9V54.2H87.7V63.1L83.5 66.9H79.3L75.1 63.1V54.2H77.9V61.9L80.7 64.4H82.1L84.9 61.9Z" fill="#E4C603"/>
<path d="M89.5 66.9V54.2H92.3V66.9H89.5Z" fill="#E4C603"/>
<path d="M95.6 66.9L94.2 65.6V55.4L95.6 54.1H105.4L106.8 55.4V57.9H104V56.6H97V64.2H104V62.9H106.8V65.4L105.4 66.7H95.6V66.9Z" fill="#E4C603"/>
<path d="M108.5 66.9V54.2H111.3V66.9H108.5Z" fill="#E4C603"/>
<path d="M114.7 66.9L113.3 65.6V55.4L114.7 54.1H124.5L125.9 55.4V65.6L124.5 66.9H114.7ZM123.1 64.4V56.8H116.1V64.4H123.1Z" fill="#E4C603"/>
<path d="M129.2 66.9L127.8 65.6V63.1H130.6V64.4H137.6V61.9H129.2L127.8 61V55.5L129.2 54.2H139L140.4 55.5V58H137.6V56.7H130.6V59.2H138.9L140.3 60.5V65.6L138.9 66.9H129.2V66.9Z" fill="#E4C603"/>
</svg>
