<svg width="140" height="13" viewBox="0 0 140 13" fill="none" xmlns="http://www.w3.org/2000/svg">
<path d="M14.5 12.8V0.100006H17.3L22.2 6.29999L27.2 0.100006H29.9V12.8H27.1V4.19998L23.4 9.10001H21.1L17.4 4.19998V12.8H14.5Z" fill="#E4C603"/>
<path d="M0 12.8V0.100006H12.5V12.8H9.70001V9H2.70001V12.8H0ZM9.70001 6.5V2.69998H2.70001V5.29999V6.60001H9.70001V6.5Z" fill="#E4C603"/>
<path d="M33.1 12.8L31.7 11.5V9H34.5V10.3H41.5V7.79999H33.1L31.7 6.89999V1.39999L33.1 0.100006H42.9L44.3 1.39999V3.89999H41.5V2.60001H34.5V5.10001H42.8L44.2 6.39999V11.5L42.8 12.8H33.1V12.8Z" fill="#575756"/>
<path d="M46.3 12.8V0.100006H58.1V2.60001H49.1V5.19998H57.4V7.69998H49.1V10.2H58.1V12.7H46.3V12.8Z" fill="#575756"/>
<path d="M69.6 12.8L68.1 9.10001H62.7V12.9H59.9V0.199982H71L72.4 1.5V7.89999L71 9.19998L72.4 13L69.6 12.8ZM69.6 6.5V2.69998H62.6V6.5H69.6Z" fill="#575756"/>
<path d="M84 7.79999V0.100006H86.8V9L82.6 12.8H78.4L74.2 9V0.100006H77V7.79999L79.8 10.3H81.2L84 7.79999Z" fill="#575756"/>
<path d="M88.5 12.8V0.100006H91.3V12.8H88.5Z" fill="#575756"/>
<path d="M94.7 12.8L93.3 11.5V1.29999L94.7 0H104.5L105.9 1.29999V3.79999H103.1V2.5H96.1V10.1H103.1V8.79999H105.9V11.3L104.5 12.6H94.7V12.8Z" fill="#575756"/>
<path d="M107.6 12.8V0.100006H110.4V12.8H107.6Z" fill="#575756"/>
<path d="M113.8 12.8L112.4 11.5V1.29999L113.8 0H123.6L125 1.29999V11.5L123.6 12.8H113.8ZM122.1 10.3V2.69998H115.1V10.3H122.1Z" fill="#575756"/>
<path d="M128.3 12.8L126.9 11.5V9H129.7V10.3H136.7V7.79999H128.3L126.9 6.89999V1.39999L128.3 0.100006H138.1L139.5 1.39999V3.89999H136.7V2.60001H129.7V5.10001H138L139.4 6.39999V11.5L138 12.8H128.3V12.8Z" fill="#575756"/>
<path d="M14.5 12.8V0.100006H17.3L22.2 6.29999L27.2 0.100006H29.9V12.8H27.1V4.19998L23.4 9.10001H21.1L17.4 4.19998V12.8H14.5Z" fill="#E4C603"/>
<path d="M0 12.8V0.100006H12.5V12.8H9.70001V9H2.70001V12.8H0ZM9.70001 6.5V2.69998H2.70001V5.29999V6.60001H9.70001V6.5Z" fill="#E4C603"/>
<path d="M33.1 12.8L31.7 11.5V9H34.5V10.3H41.5V7.79999H33.1L31.7 6.89999V1.39999L33.1 0.100006H42.9L44.3 1.39999V3.89999H41.5V2.60001H34.5V5.10001H42.8L44.2 6.39999V11.5L42.8 12.8H33.1V12.8Z" fill="#575756"/>
<path d="M46.3 12.8V0.100006H58.1V2.60001H49.1V5.19998H57.4V7.69998H49.1V10.2H58.1V12.7H46.3V12.8Z" fill="#575756"/>
<path d="M69.6 12.8L68.1 9.10001H62.7V12.9H59.9V0.199982H71L72.4 1.5V7.89999L71 9.19998L72.4 13L69.6 12.8ZM69.6 6.5V2.69998H62.6V6.5H69.6Z" fill="#575756"/>
<path d="M84 7.79999V0.100006H86.8V9L82.6 12.8H78.4L74.2 9V0.100006H77V7.79999L79.8 10.3H81.2L84 7.79999Z" fill="#575756"/>
<path d="M88.5 12.8V0.100006H91.3V12.8H88.5Z" fill="#575756"/>
<path d="M94.7 12.8L93.3 11.5V1.29999L94.7 0H104.5L105.9 1.29999V3.79999H103.1V2.5H96.1V10.1H103.1V8.79999H105.9V11.3L104.5 12.6H94.7V12.8Z" fill="#575756"/>
<path d="M107.6 12.8V0.100006H110.4V12.8H107.6Z" fill="#575756"/>
<path d="M113.8 12.8L112.4 11.5V1.29999L113.8 0H123.6L125 1.29999V11.5L123.6 12.8H113.8ZM122.1 10.3V2.69998H115.1V10.3H122.1Z" fill="#575756"/>
<path d="M128.3 12.8L126.9 11.5V9H129.7V10.3H136.7V7.79999H128.3L126.9 6.89999V1.39999L128.3 0.100006H138.1L139.5 1.39999V3.89999H136.7V2.60001H129.7V5.10001H138L139.4 6.39999V11.5L138 12.8H128.3V12.8Z" fill="#575756"/>
</svg>
