<svg width="168" height="168" viewBox="0 0 168 168" fill="none" xmlns="http://www.w3.org/2000/svg">
<path d="M138 83.5C138 113.014 113.633 137 83.5 137C53.3667 137 29 113.014 29 83.5C29 53.9863 53.3667 30 83.5 30C113.633 30 138 53.9863 138 83.5Z" stroke="black" stroke-width="4"/>
<path d="M50 126V64L69.6444 81.2698V100.063H98.5V81.2698L118 64V125" stroke="black" stroke-width="6"/>
<path d="M59 71.5L84 48.5L108 71.5" stroke="black" stroke-width="6"/>
<rect x="78" y="68" width="5" height="5" fill="#0D0101"/>
<rect x="78" y="75" width="5" height="5" fill="#0D0101"/>
<rect x="85" y="68" width="5" height="5" fill="#0D0101"/>
<rect x="85" y="75" width="5" height="5" fill="#0D0101"/>
</svg>
